# xmcd CD database file
#
# Track frame offsets:
#	150
#	17942
#	46400
#	58070
#	92345
#	122605
#	153325
#	181125
#	204732
#	209427
#	248200
#
# Disc length: 3580 seconds
#
# Revision: 2
# Processed by: cddbd v1.5PL3 Copyright (c) Steve Scherf et al.
# Submitted via: CDex 1.51
#
DISCID=930dfa0b
DTITLE=Triosence - First Enchantment
DYEAR=1900
DGENRE=
TTITLE0=waltz for andrea
TTITLE1=river song
TTITLE2=mayqueen
TTITLE3=shades of a sundial
TTITLE4=speaks in images
TTITLE5=a.l. story
TTITLE6=winter samba
TTITLE7=first enchantment
TTITLE8=a midnight's summer dream
TTITLE9=african festival
TTITLE10=quiet sense
EXTD=
EXTT0=
EXTT1=
EXTT2=
EXTT3=
EXTT4=
EXTT5=
EXTT6=
EXTT7=
EXTT8=
EXTT9=
EXTT10=
PLAYORDER=
